<svg id="visual" viewBox="0 0 900 600" width="900" height="600" xmlns="http://www.w3.org/2000/svg" xmlns:xlink="http://www.w3.org/1999/xlink" version="1.1"><path d="M0 49L180 61L360 43L540 49L720 73L900 61L900 0L720 0L540 0L360 0L180 0L0 0Z" fill="#5cac3c"></path><path d="M0 85L180 109L360 91L540 103L720 109L900 127L900 59L720 71L540 47L360 41L180 59L0 47Z" fill="#72ba5c"></path><path d="M0 187L180 259L360 271L540 307L720 211L900 271L900 125L720 107L540 101L360 89L180 107L0 83Z" fill="#88c87a"></path><path d="M0 223L180 307L360 313L540 343L720 259L900 307L900 269L720 209L540 305L360 269L180 257L0 185Z" fill="#9fd697"></path><path d="M0 391L180 487L360 463L540 481L720 427L900 457L900 305L720 257L540 341L360 311L180 305L0 221Z" fill="#b7e3b3"></path><path d="M0 511L180 553L360 547L540 553L720 511L900 541L900 455L720 425L540 479L360 461L180 485L0 389Z" fill="#cff0cf"></path><path d="M0 601L180 601L360 601L540 601L720 601L900 601L900 539L720 509L540 551L360 545L180 551L0 509Z" fill="#e9fdea"></path></svg>