<svg id="visual" viewBox="0 0 900 600" width="900" height="600" xmlns="http://www.w3.org/2000/svg" xmlns:xlink="http://www.w3.org/1999/xlink" version="1.1"><path d="M0 67L180 91L360 91L540 85L720 67L900 115L900 0L720 0L540 0L360 0L180 0L0 0Z" fill="#5cac3c"></path><path d="M0 223L180 235L360 211L540 259L720 187L900 223L900 113L720 65L540 83L360 89L180 89L0 65Z" fill="#72ba5c"></path><path d="M0 277L180 289L360 277L540 307L720 253L900 265L900 221L720 185L540 257L360 209L180 233L0 221Z" fill="#88c87a"></path><path d="M0 337L180 349L360 337L540 355L720 301L900 313L900 263L720 251L540 305L360 275L180 287L0 275Z" fill="#9fd697"></path><path d="M0 511L180 487L360 493L540 475L720 469L900 475L900 311L720 299L540 353L360 335L180 347L0 335Z" fill="#b7e3b3"></path><path d="M0 547L180 541L360 535L540 529L720 511L900 529L900 473L720 467L540 473L360 491L180 485L0 509Z" fill="#cff0cf"></path><path d="M0 601L180 601L360 601L540 601L720 601L900 601L900 527L720 509L540 527L360 533L180 539L0 545Z" fill="#e9fdea"></path></svg>