<svg id="visual" viewBox="0 0 900 600" width="900" height="600" xmlns="http://www.w3.org/2000/svg" xmlns:xlink="http://www.w3.org/1999/xlink" version="1.1"><path d="M0 79L180 55L360 79L540 49L720 85L900 55L900 0L720 0L540 0L360 0L180 0L0 0Z" fill="#e9fdea"></path><path d="M0 121L180 115L360 133L540 97L720 121L900 109L900 53L720 83L540 47L360 77L180 53L0 77Z" fill="#cff0cf"></path><path d="M0 247L180 229L360 289L540 229L720 229L900 271L900 107L720 119L540 95L360 131L180 113L0 119Z" fill="#b7e3b3"></path><path d="M0 283L180 265L360 331L540 271L720 265L900 325L900 269L720 227L540 227L360 287L180 227L0 245Z" fill="#9fd697"></path><path d="M0 325L180 307L360 391L540 343L720 313L900 391L900 323L720 263L540 269L360 329L180 263L0 281Z" fill="#88c87a"></path><path d="M0 427L180 403L360 463L540 415L720 427L900 469L900 389L720 311L540 341L360 389L180 305L0 323Z" fill="#72ba5c"></path><path d="M0 601L180 601L360 601L540 601L720 601L900 601L900 467L720 425L540 413L360 461L180 401L0 425Z" fill="#5cac3c"></path></svg>